<svg width="1025" height="1080" viewBox="0 0 1025 1080" fill="none" xmlns="http://www.w3.org/2000/svg">
<path d="M0 190.956C21.2174 175.652 21.2174 174.261 48.6956 151.304C65.0434 137.739 82.7825 125.565 99.4781 112.348C129.739 88.3477 160.348 63.6521 200 58.0869C212.174 56.3477 224.695 56.6956 236.869 58.7825C261.565 63.3043 283.826 76.1738 303.999 90.7825C382.608 147.478 443.825 243.13 536.695 277.913C574.956 292.173 618.434 289.739 657.39 277.217C745.738 248 805.564 177.043 863.303 108.522C863.303 108.522 754.781 237.565 608.695 230.608C521.738 226.782 350.26 0 270.608 0C204.869 0 144 47.9999 97.0433 89.0433C61.9129 120 31.3043 153.043 0 190.956Z" fill="black"/>
<path d="M501.23 628.166C501.23 628.166 560.36 543.297 669.229 553.036C778.099 562.775 819.142 620.166 849.055 783.992C878.968 947.818 914.099 959.644 939.838 957.905C965.577 956.166 1024.71 926.253 1024.71 926.253C1024.71 926.253 997.229 1013.21 900.186 1025.04C803.142 1036.86 789.577 878.948 775.664 817.731C761.751 756.514 754.099 657.731 668.882 622.253C592.708 590.253 500.882 628.166 500.882 628.166H501.23Z" fill="black"/>
<path d="M296.337 1027.12L356.511 957.56C359.989 953.734 363.467 949.907 366.598 945.734C367.293 944.69 367.989 944.342 368.337 943.299C369.38 939.821 368.337 935.299 368.337 931.821V284.517C368.337 282.43 367.641 278.952 368.337 277.213C368.337 276.169 370.076 275.126 370.772 274.43L378.424 265.387L397.206 243.126L407.293 231.3C405.206 234.082 401.728 236.517 399.293 238.952C393.032 245.213 386.424 251.474 380.163 257.735C371.467 266.778 361.728 275.126 353.728 284.865L324.163 319.995C321.033 323.821 315.467 327.995 314.772 332.865C313.38 346.082 314.772 360.343 314.772 373.56V992.69C314.772 992.69 314.772 995.473 314.772 996.864C314.772 998.603 316.163 995.82 314.772 997.907C293.902 1022.6 272.337 1046.95 250.772 1071.65L244.511 1078.95C241.381 1082.78 249.033 1074.78 247.294 1076.52C252.859 1071.3 258.076 1066.08 263.294 1060.52C274.076 1049.73 285.902 1038.95 295.989 1027.47L296.337 1027.12Z" fill="black"/>
<path d="M406.256 973.223L454.604 917.571C461.908 909.223 469.212 900.876 476.517 892.18C478.604 890.093 478.256 889.397 478.256 886.267V369.398C478.256 365.92 478.604 365.92 481.038 362.789L509.908 328.355L516.864 320.007C514.778 322.789 511.299 325.224 508.865 327.659C502.604 333.92 495.995 340.181 489.734 346.442C481.038 355.485 471.299 363.833 463.299 373.572L440.343 400.702L427.125 416.355C427.125 416.355 425.039 418.441 424.343 419.833C423.647 422.268 424.343 426.094 424.343 428.876V932.875C424.343 936.006 424.343 939.484 424.343 942.615C424.343 943.658 426.082 941.223 424.343 943.658C421.56 946.789 418.778 949.919 416.343 953.049L358.952 1019.48L354.43 1024.7C351.3 1028.53 358.952 1020.53 357.213 1022.27C362.778 1017.05 367.995 1011.83 373.213 1006.27C383.995 995.484 395.821 984.701 405.908 973.223H406.256Z" fill="black"/>
<path d="M501.899 554.09C517.203 540.177 532.508 526.612 548.16 512.699L646.246 424.699L734.594 345.742C741.899 339.481 748.855 332.873 756.159 326.612C756.159 326.612 757.551 325.221 757.898 325.221C757.898 325.221 757.203 325.568 757.898 326.612C759.985 331.134 764.507 335.655 767.29 339.481L835.464 432.351L837.203 434.438L889.724 381.916L798.246 462.96L785.029 474.786C773.551 484.872 762.768 496.699 751.985 507.481C746.768 512.699 741.203 518.264 735.985 523.481C735.638 523.829 730.768 528.699 733.551 526.264C764.159 499.133 794.42 472.351 825.029 445.22L838.246 433.394C848.681 424.351 858.072 413.916 867.811 404.177C869.898 402.09 891.463 381.568 890.768 380.873L820.855 285.916L810.768 272.351L809.724 273.395C780.855 299.134 751.985 325.221 723.116 350.96C677.203 392.003 631.29 433.047 585.377 474.09L553.725 502.612C542.247 513.046 531.464 524.525 520.681 535.307C515.464 540.525 509.899 546.09 504.681 551.307C504.334 551.655 499.464 556.525 502.247 554.09H501.899Z" fill="black"/>
<path d="M261.911 706.436C246.955 721.044 231.998 736.001 217.042 750.609C207.651 759.653 198.607 769.044 189.564 778.088C186.781 780.87 184.346 783.653 181.564 786.435C182.955 785.044 177.738 790.261 177.39 790.957C177.39 791.653 177.39 792.001 177.39 792.696C176.694 796.175 177.39 800.348 177.39 804.175V868.174L186.433 858.783L138.085 908.174L129.042 917.566C129.042 917.566 140.172 907.131 138.433 908.522C153.39 893.914 168.346 878.957 183.303 863.653L228.172 817.74C228.172 817.74 230.259 815.653 230.955 814.609C233.39 811.827 239.303 808.001 240.694 804.522C241.39 802.435 240.694 799.305 240.694 797.218V727.653L193.39 775.653C205.911 763.479 218.085 751.305 230.607 738.783C245.216 724.522 259.477 710.262 273.737 695.305C274.433 694.609 279.998 689.392 276.52 691.827C271.303 696.001 266.433 701.566 261.911 706.088V706.436Z" fill="black"/>
</svg>
