<svg width="24" height="24" viewBox="0 0 24 24" fill="none" xmlns="http://www.w3.org/2000/svg">
<g clip-path="url(#clip0_1693_63)">
<path d="M5.30692 5.14018C7.88282 2.56428 12.0591 2.56428 14.635 5.14018L14.7537 5.26176C17.2102 7.84587 17.1707 11.9326 14.635 14.4683C12.0592 17.0441 7.88284 17.044 5.30692 14.4683C2.73103 11.8924 2.73103 7.71607 5.30692 5.14018ZM13.5516 5.83402C11.453 3.93802 8.21318 4.0015 6.19071 6.02396C4.10299 8.11169 4.10302 11.4963 6.19071 13.584C8.27845 15.6718 11.663 15.6718 13.7508 13.584C15.7733 11.5615 15.8368 8.32177 13.9407 6.22318L13.7508 6.02396L13.5516 5.83402Z" fill="white"/>
<path d="M13.7114 13.6152C13.9571 13.3728 14.3527 13.3754 14.5951 13.621L20.4452 19.5512C20.6876 19.7969 20.6851 20.1926 20.4394 20.435C20.1937 20.6773 19.798 20.6746 19.5556 20.4291L13.7055 14.499C13.4631 14.2532 13.4657 13.8576 13.7114 13.6152Z" fill="white"/>
<path d="M12 9.375C12.3452 9.375 12.625 9.65482 12.625 10C12.625 10.3452 12.3452 10.625 12 10.625H8C7.65482 10.625 7.375 10.3452 7.375 10C7.375 9.65482 7.65482 9.375 8 9.375H12Z" fill="white"/>
<path d="M9.375 12V8C9.375 7.65482 9.65482 7.375 10 7.375C10.3452 7.375 10.625 7.65482 10.625 8V12C10.625 12.3452 10.3452 12.625 10 12.625C9.65482 12.625 9.375 12.3452 9.375 12Z" fill="white"/>
</g>
<defs>
<clipPath id="clip0_1693_63">
<rect width="24" height="24" fill="white"/>
</clipPath>
</defs>
</svg>
